<mxfile host="app.diagrams.net" agent="Mozilla/5.0 (Macintosh; Intel Mac OS X 10_15_7) AppleWebKit/605.1.15 (KHTML, like Gecko) Version/17.1 Safari/605.1.15" version="24.7.7">
  <diagram name="Page-1" id="HPq1SOWlecVovrgzK7MK">
    <mxGraphModel>
      <root>
        <mxCell id="0" />
        <mxCell id="1" parent="0" />
        <mxCell id="2" value="AI Integration" style="whiteSpace=wrap;strokeWidth=2;verticalAlign=top;" vertex="1" parent="1">
          <mxGeometry x="291" width="155" height="354" as="geometry" />
        </mxCell>
        <mxCell id="3" value="AI Model 1" style="whiteSpace=wrap;strokeWidth=2;" vertex="1" parent="1">
          <mxGeometry x="324" y="35" width="89" height="34" as="geometry" />
        </mxCell>
        <mxCell id="4" value="AI Model 2" style="whiteSpace=wrap;strokeWidth=2;" vertex="1" parent="1">
          <mxGeometry x="324" y="119" width="89" height="34" as="geometry" />
        </mxCell>
        <mxCell id="5" value="AI Model 3" style="whiteSpace=wrap;strokeWidth=2;" vertex="1" parent="1">
          <mxGeometry x="324" y="202" width="89" height="34" as="geometry" />
        </mxCell>
        <mxCell id="6" value="AI Model 4" style="whiteSpace=wrap;strokeWidth=2;" vertex="1" parent="1">
          <mxGeometry x="324" y="286" width="89" height="34" as="geometry" />
        </mxCell>
        <mxCell id="7" value="Use Cases" style="whiteSpace=wrap;strokeWidth=2;verticalAlign=top;" vertex="1" parent="1">
          <mxGeometry y="564" width="241" height="416" as="geometry" />
        </mxCell>
        <mxCell id="8" value="User Management" style="whiteSpace=wrap;strokeWidth=2;" vertex="1" parent="1">
          <mxGeometry x="49" y="599" width="142" height="34" as="geometry" />
        </mxCell>
        <mxCell id="9" value="Data Processing" style="whiteSpace=wrap;strokeWidth=2;" vertex="1" parent="1">
          <mxGeometry x="57" y="744" width="127" height="34" as="geometry" />
        </mxCell>
        <mxCell id="10" value="Recommendation Engine" style="whiteSpace=wrap;strokeWidth=2;" vertex="1" parent="1">
          <mxGeometry x="25" y="828" width="191" height="34" as="geometry" />
        </mxCell>
        <mxCell id="11" value="Reporting" style="whiteSpace=wrap;strokeWidth=2;" vertex="1" parent="1">
          <mxGeometry x="78" y="911" width="84" height="34" as="geometry" />
        </mxCell>
        <mxCell id="12" value="System Design" style="whiteSpace=wrap;strokeWidth=2;verticalAlign=top;" vertex="1" parent="1">
          <mxGeometry x="291" y="374" width="402" height="1279" as="geometry" />
        </mxCell>
        <mxCell id="13" value="API Gateway" style="whiteSpace=wrap;strokeWidth=2;" vertex="1" parent="1">
          <mxGeometry x="316" y="599" width="105" height="34" as="geometry" />
        </mxCell>
        <mxCell id="14" value="Service 1" style="whiteSpace=wrap;strokeWidth=2;" vertex="1" parent="1">
          <mxGeometry x="542" y="433" width="80" height="34" as="geometry" />
        </mxCell>
        <mxCell id="15" value="Service 2" style="whiteSpace=wrap;strokeWidth=2;" vertex="1" parent="1">
          <mxGeometry x="542" y="517" width="80" height="34" as="geometry" />
        </mxCell>
        <mxCell id="16" value="Service 3" style="whiteSpace=wrap;strokeWidth=2;" vertex="1" parent="1">
          <mxGeometry x="542" y="601" width="80" height="34" as="geometry" />
        </mxCell>
        <mxCell id="17" value="Service 4" style="whiteSpace=wrap;strokeWidth=2;" vertex="1" parent="1">
          <mxGeometry x="542" y="684" width="80" height="34" as="geometry" />
        </mxCell>
        <mxCell id="18" value="Service 1" style="whiteSpace=wrap;strokeWidth=2;verticalAlign=top;" vertex="1" parent="1">
          <mxGeometry x="497" y="768" width="172" height="175" as="geometry" />
        </mxCell>
        <mxCell id="19" value="Database 1" style="whiteSpace=wrap;strokeWidth=2;" vertex="1" parent="18">
          <mxGeometry x="43" y="33" width="94" height="34" as="geometry" />
        </mxCell>
        <mxCell id="20" value="AI Model 1" style="whiteSpace=wrap;strokeWidth=2;" vertex="1" parent="18">
          <mxGeometry x="45" y="117" width="89" height="34" as="geometry" />
        </mxCell>
        <mxCell id="21" value="" style="curved=1;startArrow=none;endArrow=block;exitX=-4.79;exitY=-21.6;entryX=-5.08;entryY=-22.6;" edge="1" parent="18" source="19" target="20">
          <mxGeometry relative="1" as="geometry">
            <Array as="points" />
          </mxGeometry>
        </mxCell>
        <mxCell id="22" value="Service 2" style="whiteSpace=wrap;strokeWidth=2;verticalAlign=top;" vertex="1" parent="1">
          <mxGeometry x="497" y="993" width="172" height="175" as="geometry" />
        </mxCell>
        <mxCell id="23" value="Database 2" style="whiteSpace=wrap;strokeWidth=2;" vertex="1" parent="22">
          <mxGeometry x="43" y="33" width="94" height="34" as="geometry" />
        </mxCell>
        <mxCell id="24" value="AI Model 2" style="whiteSpace=wrap;strokeWidth=2;" vertex="1" parent="22">
          <mxGeometry x="45" y="117" width="89" height="34" as="geometry" />
        </mxCell>
        <mxCell id="25" value="" style="curved=1;startArrow=none;endArrow=block;exitX=-4.79;exitY=-28.22;entryX=-5.08;entryY=-29.22;" edge="1" parent="22" source="23" target="24">
          <mxGeometry relative="1" as="geometry">
            <Array as="points" />
          </mxGeometry>
        </mxCell>
        <mxCell id="26" value="Service 3" style="whiteSpace=wrap;strokeWidth=2;verticalAlign=top;" vertex="1" parent="1">
          <mxGeometry x="497" y="1218" width="172" height="175" as="geometry" />
        </mxCell>
        <mxCell id="27" value="Database 3" style="whiteSpace=wrap;strokeWidth=2;" vertex="1" parent="26">
          <mxGeometry x="43" y="33" width="94" height="34" as="geometry" />
        </mxCell>
        <mxCell id="28" value="AI Model 3" style="whiteSpace=wrap;strokeWidth=2;" vertex="1" parent="26">
          <mxGeometry x="45" y="117" width="89" height="34" as="geometry" />
        </mxCell>
        <mxCell id="29" value="" style="curved=1;startArrow=none;endArrow=block;exitX=-4.79;exitY=-34.84;entryX=-5.08;entryY=-35.84;" edge="1" parent="26" source="27" target="28">
          <mxGeometry relative="1" as="geometry">
            <Array as="points" />
          </mxGeometry>
        </mxCell>
        <mxCell id="30" value="Service 4" style="whiteSpace=wrap;strokeWidth=2;verticalAlign=top;" vertex="1" parent="1">
          <mxGeometry x="497" y="1443" width="172" height="175" as="geometry" />
        </mxCell>
        <mxCell id="31" value="Database 4" style="whiteSpace=wrap;strokeWidth=2;" vertex="1" parent="30">
          <mxGeometry x="43" y="33" width="94" height="34" as="geometry" />
        </mxCell>
        <mxCell id="32" value="AI Model 4" style="whiteSpace=wrap;strokeWidth=2;" vertex="1" parent="30">
          <mxGeometry x="45" y="117" width="89" height="34" as="geometry" />
        </mxCell>
        <mxCell id="33" value="" style="curved=1;startArrow=none;endArrow=block;exitX=-4.79;exitY=-41.45;entryX=-5.08;entryY=-42.45;" edge="1" parent="30" source="31" target="32">
          <mxGeometry relative="1" as="geometry">
            <Array as="points" />
          </mxGeometry>
        </mxCell>
        <mxCell id="34" value="" style="curved=1;startArrow=none;endArrow=block;exitX=0.6;exitY=0;entryX=0.01;entryY=0.93;" edge="1" parent="1" source="13" target="14">
          <mxGeometry relative="1" as="geometry">
            <Array as="points">
              <mxPoint x="447" y="490" />
              <mxPoint x="472" y="490" />
            </Array>
          </mxGeometry>
        </mxCell>
        <mxCell id="35" value="" style="curved=1;startArrow=none;endArrow=block;exitX=0.67;exitY=0;entryX=0.01;entryY=0.58;" edge="1" parent="1" source="13" target="15">
          <mxGeometry relative="1" as="geometry">
            <Array as="points">
              <mxPoint x="447" y="542" />
              <mxPoint x="472" y="542" />
            </Array>
          </mxGeometry>
        </mxCell>
        <mxCell id="36" value="" style="curved=1;startArrow=none;endArrow=block;exitX=1;exitY=0.69;entryX=0.01;entryY=0.57;" edge="1" parent="1" source="13" target="16">
          <mxGeometry relative="1" as="geometry">
            <Array as="points">
              <mxPoint x="447" y="626" />
              <mxPoint x="472" y="626" />
            </Array>
          </mxGeometry>
        </mxCell>
        <mxCell id="37" value="" style="curved=1;startArrow=none;endArrow=block;exitX=0.64;exitY=0.98;entryX=0.01;entryY=0.59;" edge="1" parent="1" source="13" target="17">
          <mxGeometry relative="1" as="geometry">
            <Array as="points">
              <mxPoint x="447" y="709" />
              <mxPoint x="472" y="709" />
            </Array>
          </mxGeometry>
        </mxCell>
        <mxCell id="38" value="" style="curved=1;startArrow=none;endArrow=block;exitX=1.01;exitY=0.49;entryX=0;entryY=0.49;" edge="1" parent="1" source="8" target="13">
          <mxGeometry relative="1" as="geometry">
            <Array as="points" />
          </mxGeometry>
        </mxCell>
        <mxCell id="39" value="" style="curved=1;startArrow=none;endArrow=block;exitX=1;exitY=0.5;entryX=0.4;entryY=0.99;" edge="1" parent="1" source="9" target="15">
          <mxGeometry relative="1" as="geometry">
            <Array as="points">
              <mxPoint x="472" y="761" />
            </Array>
          </mxGeometry>
        </mxCell>
        <mxCell id="40" value="" style="curved=1;startArrow=none;endArrow=block;exitX=1;exitY=0.49;entryX=0.4;entryY=0.98;" edge="1" parent="1" source="10" target="16">
          <mxGeometry relative="1" as="geometry">
            <Array as="points">
              <mxPoint x="472" y="845" />
            </Array>
          </mxGeometry>
        </mxCell>
        <mxCell id="41" value="" style="curved=1;startArrow=none;endArrow=block;exitX=1.01;exitY=0.51;entryX=0.4;entryY=1;" edge="1" parent="1" source="11" target="17">
          <mxGeometry relative="1" as="geometry">
            <Array as="points">
              <mxPoint x="472" y="928" />
            </Array>
          </mxGeometry>
        </mxCell>
        <mxCell id="42" value="" style="curved=1;startArrow=none;endArrow=block;exitX=1.01;exitY=0.49;entryX=0.01;entryY=0.08;" edge="1" parent="1" source="3" target="14">
          <mxGeometry relative="1" as="geometry">
            <Array as="points">
              <mxPoint x="447" y="52" />
              <mxPoint x="472" y="410" />
            </Array>
          </mxGeometry>
        </mxCell>
        <mxCell id="43" value="" style="curved=1;startArrow=none;endArrow=block;exitX=1.01;exitY=0.48;entryX=0.28;entryY=0;" edge="1" parent="1" source="4" target="15">
          <mxGeometry relative="1" as="geometry">
            <Array as="points">
              <mxPoint x="447" y="135" />
              <mxPoint x="472" y="430" />
            </Array>
          </mxGeometry>
        </mxCell>
        <mxCell id="44" value="" style="curved=1;startArrow=none;endArrow=block;exitX=1.01;exitY=0.5;entryX=0.37;entryY=-0.01;" edge="1" parent="1" source="5" target="16">
          <mxGeometry relative="1" as="geometry">
            <Array as="points">
              <mxPoint x="447" y="219" />
              <mxPoint x="472" y="450" />
            </Array>
          </mxGeometry>
        </mxCell>
        <mxCell id="45" value="" style="curved=1;startArrow=none;endArrow=block;exitX=1.01;exitY=0.49;entryX=0.4;entryY=0.01;" edge="1" parent="1" source="6" target="17">
          <mxGeometry relative="1" as="geometry">
            <Array as="points">
              <mxPoint x="447" y="303" />
              <mxPoint x="472" y="470" />
            </Array>
          </mxGeometry>
        </mxCell>
      </root>
    </mxGraphModel>
  </diagram>
</mxfile>
